<svg xmlns="http://www.w3.org/2000/svg" width="16" height="16" viewBox="0 0 16 16">
<path d="M14.4,5.18c0,1.52,0,3,0,4.56a4.84,4.84,0,0,1-.51,2.08,7.28,7.28,0,0,1-3.69,3.4,11.76,11.76,0,0,1-1.41.49c-.23.07-.25.06-.25-.18V12.36c0-.22,0-.26.23-.33a4.6,4.6,0,0,0,1.77-1.1,3.31,3.31,0,0,0,.89-1.87,18.88,18.88,0,0,0,.1-2.91c0-.17,0-.34,0-.5s0-.13-.13-.08l-1.27.65L8.66,7c-.08,0-.13,0-.13-.07,0-.69,0-1.39,0-2.08A2.3,2.3,0,0,1,9.54,3a14,14,0,0,1,2-1.16l2-1,.75-.38c.12-.07.15,0,.15.09,0,1.11,0,2.21,0,3.32Z"/>
<path d="M1.63,5.19V.51c0-.21,0-.2.18-.11.83.44,1.67.86,2.51,1.3a17.65,17.65,0,0,1,1.86,1A2.77,2.77,0,0,1,7.34,4,3.54,3.54,0,0,1,7.5,5.24c0,.55,0,1.1,0,1.66,0,.13,0,.12-.14.07L4.64,5.57c-.11-.05-.14-.05-.14.08,0,.82,0,1.65,0,2.47a4.51,4.51,0,0,0,.43,2,3.56,3.56,0,0,0,1.5,1.5,6.74,6.74,0,0,0,.87.38.24.24,0,0,1,.18.26c0,1.1,0,2.2,0,3.3,0,.12,0,.17-.16.13a10.47,10.47,0,0,1-2-.76,7.37,7.37,0,0,1-2.88-2.6,4.89,4.89,0,0,1-.81-2.7C1.62,8.18,1.63,6.68,1.63,5.19Z"/>
</svg>
